<?xml version="1.0" encoding="UTF-8" standalone="no"?>
<svg xmlns="http://www.w3.org/2000/svg" version="1.1">
  <path	fill="#ffa600" stroke="none" d="m 197,103.46875 c -6.30877,1.61311 -12.17146,4.94893 -18.06887,7.7075 -6.5457,4.8996 -2.08006,13.35114 -1.66281,19.90553 0.24545,3.25013 3.22807,12.81732 -1.47992,4.64674 -5.38515,-4.99946 -8.31042,-15.62056 -17.10783,-15.16272 -3.58587,0.16503 -7.91511,4.31432 -10.5553,3.62278 -1.21797,-5.6837 -2.56709,-13.8231 -10.02037,-13.84176 -14.62641,-0.14826 -32.12611,-0.88962 -42.298252,11.73871 -12.438705,14.05006 -7.332957,39.19863 10.289172,46.46624 3.58815,2.23146 19.6293,6.77958 6.18548,4.47943 -5.25761,-1.98496 -12.705971,-1.47235 -14.50989,4.92583 -1.050785,6.06237 2.125507,11.94957 3.16692,17.8753 2.88886,7.91966 12.92047,5.66837 19.34292,5.88642 1.87575,6.78397 -7.41097,0.65426 -11.71046,1.34933 -5.58824,0.41844 -11.633895,-1.35712 -16.85204,1.11942 -4.648987,-6.08569 -13.61735,-4.11066 -20.25,-4.7813 -13.677819,-0.67513 -26.298003,12.48145 -22.509572,26.24153 4.123324,7.04713 3.987363,9.67478 1.259572,16.72722 0.448181,5.70373 -0.245193,13.74979 6.752213,15.6815 7.347643,2.52482 19.16092,0.54751 23.917537,1.65543 -1.006356,5.66736 -2.643046,13.62357 4.175395,16.3704 6.384757,1.24342 13.06546,2.70064 19.572485,2.32838 6.56407,-1.53576 6.66347,-8.93965 7.33237,-14.31691 9.18351,3.43914 16.92258,-12.39242 22.35725,-5.87282 6.17132,3.30763 13.13953,-0.67222 19.62239,-1.08166 4.67172,-1.10441 6.76015,-5.93432 12.0331,-3.33148 4.4809,0.54899 8.45028,0.45265 12.74154,1.80497 3.9061,1.05459 9.05982,-0.31327 11.14171,3.94559 5.61723,3.09887 12.32831,3.90524 18.50826,5.51493 4.02035,0.32951 7.9231,2.88791 12.21723,3.41928 5.40045,1.72514 12.94743,4.02809 16.3866,-2.26631 1.8166,-4.22375 2.49812,-8.8606 3.83567,-13.2575 8.642,9.73479 23.61571,9.1356 34.21875,3.15625 4.29085,6.7313 13.10571,3.53793 19.68815,4.28125 6.78554,1.17345 11.77483,-5.59478 10.43685,-11.90313 0,-5.66771 0,-11.33541 0,-17.00312 6.63778,3.94408 14.55067,-3.08089 12.875,-10.1975 -0.47202,-6.48638 2.23088,-15.81246 -5.53125,-18.9275 -5.45523,-2.56804 -11.33359,-0.90802 -16.98328,-2.10458 -6.25722,1.51582 -13.5004,0.54446 -18.92839,4.33597 -2.98903,1.48921 -12.79763,-2.97086 -8.34763,-8.52424 2.40173,-9.8863 5.78674,-19.61001 7.55021,-29.60255 -0.2159,-8.01152 -9.23523,-8.72202 -15.14478,-10.40128 -5.89128,-0.96318 -12.59057,-5.44478 -18.08363,-1.07832 2.04254,-14.63952 16.5039,-10.53398 25.1875,-4.65625 5.52917,4.21147 14.13334,0.46593 14.57581,-6.55572 1.57881,-5.75001 4.73284,-13.77764 -2.02229,-17.53935 -14.72433,-8.05992 -32.19383,-15.36695 -48.89244,-8.6378 -9.43655,0.96066 -19.25107,16.81428 -22.16003,17.44457 -1.38687,-8.81601 -1.82995,-17.85118 -3.84217,-26.52289 -1.42393,-3.20965 -4.90523,-5.30648 -8.40888,-5.06381 z m -36.96875,71.84375 c 5.375,6.44792 10.75,12.89583 16.125,19.34375 -6.30173,0.57575 -13.4415,-1.93674 -19.04107,1.73571 -4.18233,4.34007 -3.60533,12.00124 -3.92768,1.10804 -5.16836,-8.19406 7.05717,-12.86088 6.84375,-22.1875 z m 52.28125,17.59375 c 7.90807,8.26766 19.67049,11.179 30.6875,12.3125 -4.75094,8.90367 -13.3394,4.98483 -20.73657,1.50984 -6.44687,-0.66288 -13.07966,-2.93029 -19.50686,-1.70319 -4.8514,-0.95811 -7.9122,-6.52392 -0.36076,-7.4151 3.27854,-1.60862 6.81008,-2.78148 9.91669,-4.70405 z" />
  <path fill="#ffffff" stroke="none" d="m 109.1122,192.91061 c 14.31136,0.93794 32.87903,1.26041 40.46575,-13.46965 6.20977,-11.34872 0.16008,-27.05847 -12.52293,-30.49209 -6.67875,-3.08852 -14.69799,-4.05864 -20.24916,-8.99186 -4.38757,-12.60506 13.80019,-11.88971 21.50003,-10.11605 4.81932,1.5502 -0.17285,-6.14526 0.0531,-8.92355 -4.45082,-5.06609 -17.04729,-0.39774 -23.92456,-0.51508 -15.049898,2.66781 -21.905994,22.30905 -12.57753,34.06386 7.60649,8.94475 20.26009,9.83321 29.94642,15.46347 7.38944,10.77105 -9.92198,14.72764 -17.67162,12.1404 -7.3311,-2.7494 -9.27071,-1.3096 -6.37184,5.38148 0.45079,1.81969 0.90158,3.63938 1.35237,5.45907 z" />
  <path fill="#ffffff" stroke="none" d="m 184.01107,118.25371 c 2.91148,17.81119 5.82297,35.62239 8.73445,53.43358 -11.01186,-14.16274 -22.02474,-28.32648 -33.07435,-42.4586 -6.47284,2.91863 -12.94567,5.83727 -19.41851,8.7559 15.77226,18.92287 31.54453,37.84574 47.31679,56.76861 6.50251,-2.93201 13.00502,-5.86403 19.50753,-8.79604 -3.19196,-24.59539 -6.38393,-49.19077 -9.57589,-73.78616 -4.49667,2.02757 -8.99335,4.05514 -13.49002,6.08271 z" />
  <path fill="#ffffff" stroke="none" d="m 267.0784,166.81109 c -6.34262,-1.6995 -12.68525,-3.399 -19.02787,-5.0985 -2.13971,7.98551 -4.27943,15.97103 -6.41914,23.95654 -12.09,-2.32334 -12.22746,-16.87646 -9.4903,-26.37297 2.4963,-10.16607 7.5658,-24.46415 20.39422,-23.57349 7.20886,-2.45191 19.58242,12.46252 21.86498,4.00154 2.67093,-4.90467 0.50424,-7.67054 -4.3158,-8.8579 -12.98453,-7.6315 -31.86605,-11.00345 -44.47551,-0.0361 -15.24682,13.04968 -21.58701,39.38923 -7.61933,55.55485 10.65646,10.55582 26.92428,10.70629 41.01331,10.56416 2.69181,-10.04603 5.38363,-20.09206 8.07544,-30.13809 z" />
  <path fill="#ffffff" stroke="none" d="m 59.499677,249.75541 c 9.348297,1.56666 22.905706,3.56858 27.811736,-6.99408 4.322178,-8.90262 -3.144571,-17.09578 -11.277622,-19.84009 -8.553146,-1.4314 -7.293327,-11.84287 2.114593,-8.44137 6.871934,3.11198 7.947825,0.68674 6.302471,-5.55603 -9.260821,-1.19083 -22.596824,-2.93233 -26.743842,7.90797 -3.261844,8.89587 4.807712,15.28822 12.115082,18.29656 14.36297,4.84324 -0.795347,13.78515 -8.677372,7.56098 -4.292097,-3.14154 -1.042094,4.87776 -1.645046,7.06606 z" />
  <path fill="#ffffff" stroke="none" d="m 102.37475,269.9888 c 0.71512,-5.20698 1.43025,-10.41396 2.14537,-15.62094 13.63185,5.38781 27.35695,-7.79288 27.20966,-21.33206 2.13992,-10.77633 -7.54619,-23.52457 -19.09832,-18.68912 -3.69901,1.45566 -1.65379,-4.91522 -8.05036,-2.64119 -3.63348,0.42796 -9.808079,-2.0975 -8.810814,3.71256 -2.411234,17.55676 -4.822469,35.11351 -7.233703,52.67027 4.612722,0.63349 9.225445,1.26699 13.838167,1.90048 z m 3.40038,-22.64342 c 0.30555,-7.16627 2.01873,-15.40007 2.86502,-22.97643 2.93339,-8.93754 12.03396,7.22258 7.67371,12.64763 -0.71679,5.36439 -4.23806,11.43164 -10.53873,10.3288 z" />
  <path fill="#ffffff" stroke="none" d="m 139.11156,250.96629 c 4.58199,-0.8269 9.16398,-1.6538 13.74597,-2.4807 -2.53182,-14.02923 -5.06365,-28.05847 -7.59547,-42.0877 -4.47116,1.441 -8.94233,2.88201 -13.41349,4.32301 2.421,13.41513 4.84199,26.83026 7.26299,40.24539 z m 5.52471,-52.50233 c -1.81985,-10.75726 -22.85292,-2.51103 -13.96402,6.58468 4.47834,3.10348 16.06123,0.72024 13.96402,-6.58468 z" />
  <path fill="#ffffff" stroke="none" d="m 170.76578,245.69264 c 1.50162,-10.74347 3.00324,-21.48693 4.50486,-32.2304 9.96528,-0.69356 5.51131,10.53395 5.10849,16.49957 -0.78026,5.58244 -1.56052,11.16488 -2.34078,16.74732 4.61118,0.64451 9.22237,1.28901 13.83355,1.93352 1.24657,-11.40094 3.98846,-22.72903 3.94454,-34.19788 0.066,-12.27188 -16.99964,-7.23432 -19.39181,-9.23891 0.43901,-3.91481 -7.03302,-1.05576 -10.0275,-2.03062 -5.57149,-1.84287 -3.92944,4.73877 -4.94149,8.22075 -1.5078,10.7877 -3.0156,21.5754 -4.5234,32.3631 4.61118,0.64452 9.22236,1.28903 13.83354,1.93355 z" />
  <path fill="#ffffff" stroke="none" d="m 208.86956,256.40035 c 2.76679,-10.48913 5.53358,-20.97826 8.30037,-31.46739 9.97711,0.49473 4.22139,11.1139 3.113,16.98947 -1.43766,5.45028 -2.87532,10.90056 -4.31298,16.35084 4.50202,1.18753 9.00404,2.37506 13.50606,3.56259 2.59163,-11.17224 6.65934,-22.09457 7.97766,-33.48748 1.52285,-12.17724 -16.02027,-9.20182 -18.15746,-11.47631 0.90078,-3.83497 -6.85789,-1.88346 -9.71542,-3.20702 -5.31322,-2.49146 -4.46436,4.23861 -5.88274,7.57577 -2.77818,10.53231 -5.55637,21.06463 -8.33455,31.59694 4.50202,1.18753 9.00404,2.37506 13.50606,3.56259 z" />
  <path fill="#ffffff" stroke="none" d="m 268.88406,240.67158 c -7.54164,3.83434 -20.20454,-9.7503 -7.90596,-10.31669 4.69139,-1.5896 9.38278,-3.17919 14.07417,-4.76879 -0.64355,-8.71053 -6.92788,-17.78837 -16.56397,-16.91151 -14.51865,-0.0268 -21.67596,16.8737 -16.78374,29.12294 2.53664,12.34725 17.35337,17.77627 27.81733,11.36045 2.46249,-2.54872 11.71369,-2.5369 8.07935,-7.48066 -0.74504,-6.33745 -4.56532,-1.38837 -8.71718,-1.00574 z m -8.16812,-17.21561 c -6.3324,4.79606 -11.15442,0.80408 -6.875,-6.72711 4.86551,-3.5748 6.18206,3.4456 6.875,6.72711 z" />
  <path fill="#ffffff" stroke="none" d="m 296.4667,219.47532 c 4.36129,-3.55726 13.74564,8.59822 12.88916,1.17666 -1.01928,-3.5604 2.45736,-10.43626 -2.62903,-11.03913 -5.90716,-1.82059 -11.25199,7.10965 -10.89619,-0.62455 -4.44399,0.66412 -8.88797,1.32823 -13.33196,1.99235 0,13.5835 0,27.16699 0,40.75049 4.65601,0 9.31201,0 13.96802,0 0,-10.75194 0,-21.50388 0,-32.25582 z" />
</svg>
