<?xml version="1.0" encoding="UTF-8" standalone="no"?>
<svg xmlns="http://www.w3.org/2000/svg" version="1.1">
    <path fill="#7fcc28" stroke="none" d="m 166.94486,171.7673 12.00905,0 -0.34365,13.89675 c 4.4619,-10.809 12.35005,-15.27 20.75755,-15.27 5.31675,0 9.09375,1.2015 12.351,3.432 l -4.6335,10.464 c -2.22975,-1.54425 -5.31675,-2.745 -9.77625,-2.745 -10.12275,0 -18.35515,7.20525 -18.35515,23.84512 l 0,37.39538 -12.00905,0 0,-71.01825" />
    <path fill="#7fcc28" stroke="none" d="m 268.67456,202.13262 c -1.02975,-12.17955 -8.7495,-21.78757 -23.67375,-21.78757 -13.55325,0 -22.6425,8.74897 -24.53025,21.78757 l 48.204,0 z m -21.95855,31.90433 c 10.63505,0 17.84255,-4.28498 22.4738,-9.43305 l 7.3755,7.20532 c -6.5175,7.37543 -15.9525,12.35273 -29.8493,12.35273 -23.3302,0 -38.4277,-16.1259 -38.4277,-36.88538 0,-20.75377 15.95395,-37.05202 36.7125,-37.05202 22.81725,0 36.5415,17.496 35.68275,40.9989 l -60.38625,0 c 1.54425,13.5516 10.80825,22.8135 26.4187,22.8135" />
    <path fill="#7fcc28" stroke="none" d="m 290.80406,221.34642 0,-39.45937 -10.9815,0 0,-10.11975 10.9815,0 0,-24.35925 11.83575,0 0,24.35925 16.4715,0 -4.82775,10.11975 -11.64375,0 0,39.62865 c 0,9.43627 3.2595,12.3501 8.40525,12.3501 5.49,0 7.893,-2.22975 10.12275,-4.45808 l 5.832,8.0634 c -3.60375,3.60143 -8.40525,6.8616 -17.15475,6.8616 -10.80675,0 -19.041,-6.17692 -19.041,-22.9863" />
    <path fill="#7fcc28" stroke="none" d="m 335.68931,221.34642 0,-39.45937 -13.52175,0 4.82775,-10.11975 8.694,0 0,-24.35925 11.83573,0 0,24.35925 19.90125,0 0,10.11975 -19.90125,0 0,39.62865 c 0,9.43627 3.26175,12.3501 8.40525,12.3501 5.4915,0 7.89225,-2.22975 10.12275,-4.45808 l 5.8335,8.0634 c -3.603,3.60143 -8.4075,6.8616 -17.157,6.8616 -10.806,0 -19.04023,-6.17692 -19.04023,-22.9863" />
    <path fill="#7fcc28" stroke="none" d="m 434.10129,207.27657 c 0,-15.26422 -10.12275,-26.58802 -25.21875,-26.58802 -15.26775,0 -25.5615,11.3238 -25.5615,26.58802 0,15.26805 10.29375,26.58923 25.5615,26.58923 15.096,0 25.21875,-11.32118 25.21875,-26.58923 z m -62.96025,0 c 0,-20.75377 16.46925,-37.05202 37.7415,-37.05202 21.1005,0 37.39875,16.29825 37.39875,37.05202 0,20.75948 -16.29825,36.88538 -37.39875,36.88538 -21.27225,0 -37.7415,-16.1259 -37.7415,-36.88538" />
    <path fill="#7fcc28" stroke="none" d="m 454.62879,171.7673 12.009,0 -0.34425,14.58225 c 4.63125,-10.122 14.06625,-16.125 25.56,-16.125 15.78375,0 26.5875,10.80675 26.5875,29.33407 l 0,43.22693 -12.006,0 0,-41.85323 c 0,-12.52327 -5.83425,-19.73002 -17.67,-19.73002 -13.209,0 -22.12725,8.40682 -22.12725,22.47255 l 0,39.1107 -12.009,0 0,-71.01825" />
    <path fill="#7fcc28" stroke="none" d="m 649.84329,170.05055 -50.60775,0 0,-10.293 66.90525,0 0,1.5435 -47.1765,101.04076 -12.35325,0 43.23225,-92.29126" />
    <path fill="#7fcc28" stroke="none" d="m 563.55954,198.18545 c 0.516,-0.1731 2.56725,-2.05928 5.4915,-4.97723 l 26.763,-32.24992 -0.69225,-1.20075 -62.44575,0 0,10.293 35.34075,0 c 3.94575,0 8.235,-0.687 8.235,-0.687 0,0 -2.91825,2.7435 -5.14875,5.66175 l -27.61875,33.45187 1.20075,1.71503 c 3.60075,-1.71503 8.23425,-3.09083 14.58225,-3.09083 15.609,0 26.07525,7.20735 26.07525,22.13378 0,15.61057 -11.15025,23.84475 -24.36,23.84475 -12.4245,0 -21.47175,-5.91975 -26.4675,-16.56735 l -1.0275,-2.31593 -9.55875,7.38893 c 6.17475,13.55332 19.38525,22.3005 37.05375,22.3005 21.44175,0 37.056,-13.89465 37.056,-34.47975 0,-19.55835 -14.922,-31.22085 -34.479,-31.22085" />
    <path fill="#7fcc28" stroke="none" d="m 153.11201,229.40772 c -2.23035,2.22833 -4.63125,4.45808 -10.123,4.45808 -5.14335,0 -8.40525,-2.91383 -8.40525,-12.3501 l 0,-34.4634 -11.8359,0 0,34.29412 c 0,16.80938 8.2345,22.9863 19.04095,22.9863 8.7512,0 13.553,-3.26017 17.15415,-6.8616 l -5.83095,-8.0634 z m -30.36415,-47.49742 11.8359,0 0,-0.0232 19.8996,0 0,-10.11975 -19.8996,0 0,-24.35925 -11.8359,0 0,24.35925 -10.9793,0 0,10.11975 10.9793,0 0,0.0232" />
</svg>
