<?xml version="1.0" encoding="UTF-8" standalone="no"?>
<svg xmlns="http://www.w3.org/2000/svg" version="1.1">
<path fill="#7fcc28" stroke="none" d="m 735.684,1228.25 160.121,0 -4.582,-185.29 c 59.492,144.12 164.667,203.6 276.767,203.6 70.89,0 121.25,-16.02 164.68,-45.76 l -61.78,-139.52 c -29.73,20.59 -70.89,36.6 -130.35,36.6 -134.97,0 -244.735,-96.07 -244.735,-317.935 l 0,-498.605 -160.121,0 0,946.91" />
<path fill="#7fcc28" stroke="none" d="m 2092.08,823.379 c -13.73,162.394 -116.66,290.501 -315.65,290.501 -180.71,0 -301.9,-116.653 -327.07,-290.501 l 642.72,0 z M 1799.3,397.988 c 141.8,0 237.9,57.133 299.65,125.774 l 98.34,-96.071 c -86.9,-98.339 -212.7,-164.703 -397.99,-164.703 -311.07,0 -512.37,215.012 -512.37,491.805 0,276.717 212.72,494.027 489.5,494.027 304.23,0 487.22,-233.28 475.77,-546.652 l -805.15,0 c 20.59,-180.688 144.11,-304.18 352.25,-304.18" />
<path fill="#7fcc28" stroke="none" d="m 2387.14,567.195 0,526.125 -146.42,0 0,134.93 146.42,0 0,324.79 157.81,0 0,-324.79 219.62,0 -64.37,-134.93 -155.25,0 0,-528.382 c 0,-125.817 43.46,-164.668 112.07,-164.668 73.2,0 105.24,29.73 134.97,59.441 l 77.76,-107.512 c -48.05,-48.019 -112.07,-91.488 -228.73,-91.488 -144.09,0 -253.88,82.359 -253.88,306.484" />
<path fill="#7fcc28" stroke="none" d="m 2985.61,567.195 0,526.125 -180.29,0 64.37,134.93 115.92,0 0,324.79 157.81,0 0,-324.79 265.35,0 0,-134.93 -265.35,0 0,-528.382 c 0,-125.817 43.49,-164.668 112.07,-164.668 73.22,0 105.23,29.73 134.97,59.441 l 77.78,-107.512 c -48.04,-48.019 -112.1,-91.488 -228.76,-91.488 -144.08,0 -253.87,82.359 -253.87,306.484" />
<path fill="#7fcc28" stroke="none" d="m 4297.77,754.793 c 0,203.523 -134.97,354.507 -336.25,354.507 -203.57,0 -340.82,-150.984 -340.82,-354.507 0,-203.574 137.25,-354.523 340.82,-354.523 201.28,0 336.25,150.949 336.25,354.523 z m -839.47,0 c 0,276.717 219.59,494.027 503.22,494.027 281.34,0 498.65,-217.31 498.65,-494.027 0,-276.793 -217.31,-491.805 -498.65,-491.805 -283.63,0 -503.22,215.012 -503.22,491.805"/>
<path fill="#7fcc28" stroke="none" d="m 4571.47,1228.25 160.12,0 -4.59,-194.43 c 61.75,134.96 187.55,215 340.8,215 210.45,0 354.5,-144.09 354.5,-391.121 l 0,-576.359 -160.08,0 0,558.043 c 0,166.977 -77.79,263.067 -235.6,263.067 -176.12,0 -295.03,-112.091 -295.03,-299.634 l 0,-521.476 -160.12,0 0,946.91" />
<path fill="#7fcc28" stroke="none" d="m 7174.33,1251.14 -674.77,0 0,137.24 892.07,0 0,-20.58 -629.02,-1347.2102 -164.71,0 576.43,1230.5502" />
<path fill="#7fcc28" stroke="none" d="m 6023.88,876.008 c 6.88,2.308 34.23,27.457 73.22,66.363 l 356.84,429.999 -9.23,16.01 -832.61,0 0,-137.24 471.21,0 c 52.61,0 109.8,9.16 109.8,9.16 0,0 -38.91,-36.58 -68.65,-75.49 l -368.25,-446.025 16.01,-22.867 c 48.01,22.867 109.79,41.211 194.43,41.211 208.12,0 347.67,-96.098 347.67,-295.117 0,-208.141 -148.67,-317.93 -324.8,-317.93 -165.66,0 -286.29,78.93 -352.9,220.898 l -13.7,30.879 -127.45,-98.519 C 5577.8,116.629 5753.94,0 5989.52,0 c 285.89,0 494.08,185.262 494.08,459.73 0,260.778 -198.96,416.278 -459.72,416.278" />
<path fill="#7fcc28" stroke="none" d="M 551.246,459.711 C 521.508,430 489.496,400.27 416.273,400.27 c -68.578,0 -112.07,38.851 -112.07,164.668 l 0,459.512 -157.812,0 0,-457.255 c 0,-224.125 109.793,-306.484 253.879,-306.484 116.683,0 180.707,43.469 228.722,91.488 l -77.746,107.512 z m -404.855,633.299 157.812,0 0,0.31 265.328,0 0,134.93 -265.328,0 0,324.79 -157.812,0 0,-324.79 -146.391,0 0,-134.93 146.391,0 0,-0.31" />
</svg>